<?xml version="1.0" encoding="UTF-8" standalone="no"?>
<svg
   xmlns:dc="http://purl.org/dc/elements/1.1/"
   xmlns:cc="http://creativecommons.org/ns#"
   xmlns:rdf="http://www.w3.org/1999/02/22-rdf-syntax-ns#"
   xmlns:svg="http://www.w3.org/2000/svg"
   xmlns="http://www.w3.org/2000/svg"
   xmlns:sodipodi="http://sodipodi.sourceforge.net/DTD/sodipodi-0.dtd"
   xmlns:inkscape="http://www.inkscape.org/namespaces/inkscape"
   viewBox="0 0 48 48"
   version="1.1"
   id="svg4538"
   sodipodi:docname="App.svg"
   inkscape:version="0.92.3 (2405546, 2018-03-11)">
  <metadata
     id="metadata4544">
    <rdf:RDF>
      <cc:Work
         rdf:about="">
        <dc:format>image/svg+xml</dc:format>
        <dc:type
           rdf:resource="http://purl.org/dc/dcmitype/StillImage" />
        <dc:title></dc:title>
      </cc:Work>
    </rdf:RDF>
  </metadata>
  <defs
     id="defs4542" />
  <sodipodi:namedview
     pagecolor="#ffffff"
     bordercolor="#666666"
     borderopacity="1"
     objecttolerance="10"
     gridtolerance="10"
     guidetolerance="10"
     inkscape:pageopacity="0"
     inkscape:pageshadow="2"
     inkscape:window-width="1920"
     inkscape:window-height="1009"
     id="namedview4540"
     showgrid="false"
     inkscape:zoom="17.5"
     inkscape:cx="24"
     inkscape:cy="24"
     inkscape:window-x="-8"
     inkscape:window-y="-8"
     inkscape:window-maximized="1"
     inkscape:current-layer="svg4538" />
  <path
     style="fill:#ffffff;fill-opacity:1;stroke:none;stroke-width:1px;stroke-linecap:butt;stroke-linejoin:miter;stroke-opacity:1"
     d="m 5.6571429,19.257143 20.2857141,24.8 M 26.171428,45.542857 47.371428,20 39.542857,8.1714286 26.057142,11.714286 12,7.8285714 4.9142858,20.4"
     id="path4554"
     inkscape:connector-curvature="0"
     sodipodi:nodetypes="cccccccc"
     inkscape:export-xdpi="256"
     inkscape:export-ydpi="256" />
  <path
     d="M26 46.58a2 2 0 0 1-1.42-.58C21.73 43.12 7.45 28.68 6 26.31A13.81 13.81 0 0 1 9.47 8.15a11.61 11.61 0 0 1 9.16-2A12.1 12.1 0 0 1 26 10.93a12.1 12.1 0 0 1 7.37-4.78 11.61 11.61 0 0 1 9.16 2A13.81 13.81 0 0 1 46 26.31C44.55 28.69 30.27 43.12 27.42 46a2 2 0 0 1-1.42.58ZM16.32 9.92a7.73 7.73 0 0 0-4.52 1.48 9.75 9.75 0 0 0-2.38 12.83c.83 1.36 9.75 10.6 16.58 17.51 6.83-6.91 15.75-16.15 16.58-17.51l1.71 1-1.71-1A9.75 9.75 0 0 0 40.2 11.4a7.66 7.66 0 0 0-6-1.33A8.26 8.26 0 0 0 28.77 14a12.81 12.81 0 0 0-.9 2 2 2 0 0 1-3.74 0 12.85 12.85 0 0 0-.9-2 8.26 8.26 0 0 0-5.4-3.91 7.62 7.62 0 0 0-1.51-.17Z"
     fill="#eb330e"
     class="fill-2161ff"
     id="path4532"
     inkscape:export-xdpi="256"
     inkscape:export-ydpi="256" />
  <path
     d="M23 32a2 2 0 0 1-1.71-1l-4.42-8.1-2.17 3.25A2 2 0 0 1 13 27H2a2 2 0 0 1 0-4h9.93l3.41-5.11a2 2 0 0 1 1.75-.89 2 2 0 0 1 1.67 1l4.32 8 1.2-2A2 2 0 0 1 26 23h5a2 2 0 0 1 0 4h-3.87l-2.42 4A2 2 0 0 1 23 32Z"
     fill="#ff9633"
     class="fill-a6c7ff"
     id="path4534"
     inkscape:export-xdpi="256"
     inkscape:export-ydpi="256" />
  <path
     fill="none"
     d="M0 0h48v48H0z"
     id="path4536"
     inkscape:export-xdpi="256"
     inkscape:export-ydpi="256" />
</svg>
